<?xml version="1.0" encoding="UTF-8" standalone="no"?>
<!-- Created with Inkscape (http://www.inkscape.org/) -->

<svg
   xmlns:dc="http://purl.org/dc/elements/1.1/"
   xmlns:cc="http://creativecommons.org/ns#"
   xmlns:rdf="http://www.w3.org/1999/02/22-rdf-syntax-ns#"
   xmlns:svg="http://www.w3.org/2000/svg"
   xmlns="http://www.w3.org/2000/svg"
   xmlns:sodipodi="http://sodipodi.sourceforge.net/DTD/sodipodi-0.dtd"
   xmlns:inkscape="http://www.inkscape.org/namespaces/inkscape"
   width="210mm"
   height="297mm"
   viewBox="0 0 210 297"
   version="1.1"
   id="svg8"
   inkscape:version="0.92.4 (5da689c313, 2019-01-14)"
   sodipodi:docname="kalex-consulting-logo-design.svg">
  <defs
     id="defs2" />
  <sodipodi:namedview
     id="base"
     pagecolor="#ffffff"
     bordercolor="#666666"
     borderopacity="1.0"
     inkscape:pageopacity="0.0"
     inkscape:pageshadow="2"
     inkscape:zoom="0.98994949"
     inkscape:cx="340.34201"
     inkscape:cy="793.12805"
     inkscape:document-units="mm"
     inkscape:current-layer="layer1"
     showgrid="false"
     inkscape:window-width="1920"
     inkscape:window-height="1137"
     inkscape:window-x="1912"
     inkscape:window-y="-8"
     inkscape:window-maximized="1" />
  <metadata
     id="metadata5">
    <rdf:RDF>
      <cc:Work
         rdf:about="">
        <dc:format>image/svg+xml</dc:format>
        <dc:type
           rdf:resource="http://purl.org/dc/dcmitype/StillImage" />
        <dc:title></dc:title>
      </cc:Work>
    </rdf:RDF>
  </metadata>
  <g
     inkscape:label="Layer 1"
     inkscape:groupmode="layer"
     id="layer1">
    <g
       id="g52"
       transform="translate(2.6458333,-1.5119045)"
       inkscape:export-xdpi="96"
       inkscape:export-ydpi="96">
      <path
         style="fill:#9a9aa2;stroke-width:0.32389477"
         d="m 174.15127,187.98536 c -1.12612,-0.36586 -3.37713,-1.6243 -3.6039,-2.01478 -0.10604,-0.1826 -0.0436,-0.62869 0.13877,-0.99133 0.32101,-0.63832 0.38222,-0.62582 1.92163,0.39257 1.39523,0.92302 1.92641,1.06902 4.33514,1.19157 2.36013,0.12009 2.93255,0.0379 4.08195,-0.58614 1.7701,-0.96102 2.52928,-2.69779 2.53868,-5.80774 l 0.007,-2.28102 -0.78297,0.99025 c -1.20193,1.52011 -3.26274,2.40233 -5.61171,2.40233 -2.31144,0 -3.78963,-0.56425 -5.3861,-2.05597 -1.7664,-1.65051 -2.46687,-3.39117 -2.46687,-6.13024 0,-2.8046 0.72285,-4.5331 2.61746,-6.25894 2.90976,-2.65056 7.75507,-2.61242 10.4166,0.082 l 1.18428,1.1989 0.0931,-1.52055 c 0.0853,-1.39192 0.16814,-1.52971 0.97955,-1.62865 l 0.8864,-0.10808 -0.10147,8.96255 c -0.0936,8.26754 -0.15255,9.08001 -0.76013,10.47718 -0.78478,1.80468 -2.22185,3.17582 -3.8252,3.6497 -1.3337,0.39419 -5.49097,0.41689 -6.66216,0.0364 z m 6.85739,-9.46953 c 3.78286,-2.66411 3.37076,-9.15312 -0.71496,-11.25797 -3.09689,-1.59543 -7.21828,-0.3326 -8.64801,2.64982 -1.19633,2.49557 -0.64711,6.37409 1.14713,8.1008 1.94301,1.86989 5.93141,2.11618 8.21584,0.50735 z m -144.063247,3.53118 c -4.327084,-0.74378 -6.946635,-3.975 -6.946635,-8.56869 0,-5.09404 3.254475,-8.58029 7.993075,-8.56233 2.225943,0.008 4.099531,0.77816 5.329114,2.18935 0.810532,0.93024 0.811766,0.94001 0.178365,1.41215 -0.574378,0.42814 -0.721238,0.39074 -1.476554,-0.37599 -1.110361,-1.12714 -2.272062,-1.56219 -4.17148,-1.56219 -4.948212,0 -7.8163,5.85898 -5.248341,10.7214 1.75921,3.33106 6.457103,4.14983 9.40858,1.63976 1.099502,-0.93506 1.160595,-0.94827 1.661641,-0.35907 0.489847,0.57603 0.459913,0.66575 -0.513526,1.53925 -1.667387,1.49618 -4.181973,2.27568 -6.214239,1.92636 z m 16.483541,-0.016 c -6.379077,-0.73584 -9.175097,-9.81271 -4.541614,-14.74369 2.995216,-3.18752 8.285818,-3.18752 11.281034,0 3.034664,3.22951 3.104244,8.92304 0.1486,12.15943 -1.881821,2.06058 -4.126637,2.90279 -6.88802,2.58426 z m 4.443753,-2.62012 c 2.478239,-1.50732 3.647936,-5.68958 2.44698,-8.74917 -1.028485,-2.6202 -3.111374,-4.08237 -5.8154,-4.08237 -2.782635,0 -4.945034,1.6527 -5.816743,4.44568 -1.993953,6.38866 3.788709,11.66812 9.185163,8.38586 z m 31.506066,2.42309 c -1.726194,-0.42131 -3.580115,-1.29613 -3.894684,-1.83779 -0.09176,-0.15801 0.0052,-0.53275 0.215567,-0.83276 0.348004,-0.49639 0.53613,-0.46408 2.090933,0.35916 1.378966,0.73013 2.135987,0.90313 3.924652,0.89685 3.146865,-0.0111 4.541188,-0.94044 4.560937,-3.04012 0.0141,-1.50009 -1.012686,-2.22736 -4.12892,-2.92449 -4.643897,-1.03888 -6.223818,-2.29226 -6.221005,-4.93524 0.0039,-3.66294 4.485093,-5.63771 9.323383,-4.10864 1.921994,0.60741 2.399721,1.10562 1.84054,1.91944 -0.378842,0.55137 -0.456193,0.55179 -1.465406,0.008 -1.529632,-0.82411 -5.24565,-0.98121 -6.527203,-0.27594 -1.787767,0.98384 -2.04238,3.31956 -0.480578,4.4086 0.438955,0.30608 2.112285,0.89461 3.718511,1.30786 3.378218,0.86913 4.723831,1.52789 5.247358,2.56892 0.567081,1.12763 0.504277,3.33591 -0.123891,4.35634 -1.211323,1.96773 -4.832927,2.9223 -8.080194,2.12974 z m 17.453497,0.0795 c -1.83417,-0.46329 -3.1018,-1.43474 -3.96465,-3.03834 -0.73309,-1.36244 -0.77828,-1.75984 -0.87593,-7.70152 l -0.10295,-6.26496 h 0.96638 0.96638 l 6.2e-4,5.93083 c 3.2e-4,4.98137 0.0884,6.11622 0.54945,7.08891 1.45243,3.06404 6.38638,3.41818 8.74725,0.62784 1.13536,-1.34206 1.37773,-2.81109 1.37773,-8.35134 v -5.29624 h 0.94192 0.94191 v 8.52034 8.52034 h -0.94191 c -0.90937,0 -0.94192,-0.0528 -0.94192,-1.52923 v -1.52922 l -0.82251,1.04025 c -1.37944,1.74464 -4.36178,2.60874 -6.84177,1.98234 z m 26.6423,0.008 c -1.29016,-0.39205 -2.32997,-1.6372 -2.6702,-3.19748 -0.15414,-0.70691 -0.28363,-3.72862 -0.28775,-6.71491 l -0.007,-5.42962 h -1.41287 c -1.29775,0 -1.41288,-0.0681 -1.41288,-0.83533 0,-0.76726 0.11513,-0.83533 1.41288,-0.83533 h 1.41287 v -1.83772 c 0,-1.81915 0.01,-1.83772 0.94192,-1.83772 0.9324,0 0.94192,0.0186 0.94192,1.83772 v 1.83772 h 2.51177 c 2.46992,0 2.51178,0.0139 2.51178,0.83533 0,0.82141 -0.0419,0.83533 -2.51178,0.83533 h -2.51177 v 6.18142 c 0,5.70937 0.0473,6.23181 0.61995,6.84118 0.91633,0.97516 2.07456,1.16713 3.48483,0.57759 1.16446,-0.48679 1.25539,-0.48013 1.55407,0.1138 0.25409,0.50525 0.17556,0.72502 -0.39451,1.10398 -0.94602,0.62888 -2.99354,0.88542 -4.18274,0.52405 z m -66.387824,-8.49233 v -8.52034 h 0.78493 c 0.737144,0 0.785144,0.1068 0.788413,1.75419 l 0.0035,1.75419 0.774638,-1.04572 c 1.273145,-1.71868 3.338885,-2.55048 5.981344,-2.40848 2.649169,0.14237 4.091231,1.00112 5.22976,3.11433 0.671772,1.24686 0.730487,1.78753 0.826123,7.60722 l 0.102958,6.26495 h -0.773781 -0.773782 l -0.119422,-5.76376 c -0.103564,-4.99833 -0.204971,-5.94125 -0.763596,-7.10028 -0.91597,-1.90044 -2.267514,-2.56954 -4.908161,-2.42986 -2.436915,0.12891 -3.4628,0.75816 -4.55747,2.79541 -0.648297,1.20651 -0.701662,1.7279 -0.706438,6.9018 l -0.0052,5.59669 h -0.941917 -0.941916 z m 55.573084,-3.50837 V 157.8919 h 0.78493 0.78493 v 12.02872 12.02871 h -0.78493 -0.78493 z m 19.78025,3.50837 v -8.52034 h 0.78493 0.78493 v 8.52034 8.52034 h -0.78493 -0.78493 z m 7.8493,0 v -8.52034 h 0.78493 c 0.7333,0 0.78493,0.11064 0.78493,1.68179 v 1.6818 l 1.10965,-1.18089 c 1.62496,-1.72929 3.02992,-2.25496 5.66896,-2.12102 2.63231,0.13359 4.07553,0.99354 5.2141,3.10683 0.67177,1.24686 0.73049,1.78753 0.82612,7.60722 l 0.10296,6.26495 h -0.77438 -0.77438 l -0.12792,-5.93082 c -0.10408,-4.82565 -0.23045,-6.13594 -0.6782,-7.03153 -0.82773,-1.65566 -2.21662,-2.40595 -4.44445,-2.40093 -2.50556,0.006 -4.14167,0.96418 -5.10205,2.98908 -0.6464,1.3629 -0.70643,1.95199 -0.70643,6.93184 v 5.44236 h -0.94192 -0.94192 z m -8.1511,-13.17396 c -0.43809,-0.87113 -0.10238,-1.65804 0.81147,-1.90213 1.32017,-0.35261 2.2418,1.15505 1.31137,2.14523 -0.57609,0.61307 -1.76048,0.47744 -2.12284,-0.2431 z m -67.586587,-4.05771 c -6.819025,-0.81818 -10.921361,-6.55561 -9.198768,-12.86516 0.717926,-2.62963 2.964466,-5.07498 5.624643,-6.1224 2.16962,-0.85427 6.394989,-1.34981 11.612256,-1.36188 l 3.72912,-0.009 -0.147074,-1.62889 c -0.341463,-3.78184 -2.970349,-5.78881 -7.582639,-5.78881 -3.047932,0 -5.557183,0.66512 -8.008722,2.12287 -0.927728,0.55165 -1.788966,0.87856 -1.913864,0.72647 -0.124895,-0.15209 -0.80775,-1.44095 -1.517453,-2.86412 l -1.290366,-2.58758 1.15915,-0.83824 c 0.637537,-0.46103 2.079438,-1.20062 3.204231,-1.64353 9.115794,-3.58955 19.113031,-1.49201 22.052938,4.62697 1.463512,3.04608 1.576407,4.11114 1.729001,16.31167 l 0.145225,11.61105 h -3.64119 -3.641186 v -1.8766 -1.8766 l -1.28111,1.23172 c -1.613845,1.55162 -3.607977,2.46936 -5.888806,2.71013 -0.978061,0.10325 -2.060867,0.22983 -2.406236,0.2813 -0.34537,0.0515 -1.577987,-0.0204 -2.73915,-0.15975 z m 7.866526,-6.67314 c 2.805107,-1.3205 3.820832,-2.91843 3.820832,-6.01091 v -2.04898 l -5.416021,0.11224 c -4.441934,0.092 -5.598589,0.21822 -6.431115,0.70151 -2.470295,1.43405 -2.617947,5.40523 -0.262053,7.04798 1.930213,1.34592 5.660727,1.43512 8.288357,0.19816 z m 50.585151,6.65758 c -5.7963,-0.61461 -10.86426,-4.10842 -13.15237,-9.06715 -2.89175,-6.26694 -2.32126,-13.54493 1.48218,-18.90881 5.69235,-8.02773 17.98768,-8.97863 24.63439,-1.90516 3.08622,3.28437 4.63579,7.44557 4.63579,12.44894 v 2.76991 h -12.40191 c -13.63167,0 -12.81926,-0.14222 -11.94256,2.09071 1.518,3.86635 5.88127,6.26678 10.55152,5.80485 2.68295,-0.26536 3.82841,-0.69491 6.00326,-2.25122 l 1.78647,-1.27838 1.90271,2.34682 c 1.04648,1.29075 1.9027,2.46048 1.9027,2.5994 0,0.46527 -1.70954,1.99235 -3.53869,3.161 -2.93846,1.87739 -7.26824,2.67634 -11.86349,2.18909 z m 10.22115,-21.09429 c -0.53023,-2.77673 -3.28903,-5.87563 -5.89969,-6.62702 -1.90486,-0.54825 -5.44465,-0.22617 -7.03216,0.63984 -2.2233,1.21284 -3.76747,3.2401 -4.43317,5.82011 l -0.32331,1.25299 h 8.94785 8.94785 z M 29.724052,132.33089 v -23.55623 h 3.921245 3.921245 l 0.0819,13.99255 0.0819,13.99256 7.535333,-7.46143 7.535333,-7.46143 4.502377,-0.0156 4.502377,-0.0156 -6.622345,7.24027 c -5.820562,6.36366 -6.570252,7.30423 -6.19206,7.76854 0.23666,0.29056 3.364533,4.51279 6.950827,9.38275 3.586294,4.86996 6.659872,9.04242 6.830173,9.27213 0.244911,0.33036 -0.666472,0.4135 -4.359899,0.39773 l -4.669533,-0.0199 -5.023556,-6.67201 c -2.762955,-3.6696 -5.194899,-6.91442 -5.404322,-7.21071 -0.333244,-0.47147 -0.712915,-0.20968 -3.042151,2.09765 l -2.661385,2.63635 -0.01908,4.5943 -0.01908,4.5943 h -3.924652 -3.924653 z m 73.783468,0 v -23.55623 h 3.76767 3.76767 v 23.55623 23.55623 h -3.76767 -3.76767 z m 49.35566,22.9715 c 1.1434,-1.41255 11.86893,-16.43952 11.86893,-16.62892 0,-0.11572 -2.61382,-3.87804 -5.80849,-8.36072 -3.19467,-4.48269 -5.80849,-8.23059 -5.80849,-8.32866 0,-0.0981 1.87206,-0.17283 4.16014,-0.1661 l 4.16013,0.0122 3.61068,5.18885 c 1.98587,2.85387 3.75954,5.32319 3.94147,5.48738 0.21594,0.19488 1.67192,-1.61094 4.19349,-5.20108 l 3.86269,-5.49961 h 4.06681 c 2.79576,0 4.00225,0.11118 3.86024,0.35572 -0.11362,0.19564 -2.8111,3.97486 -5.9944,8.39826 -5.11052,7.1014 -5.73673,8.10572 -5.35118,8.58229 0.97164,1.20104 11.82907,16.41223 11.82907,16.57246 0,0.0949 -1.88107,0.17263 -4.18016,0.17263 h -4.18017 l -4.04026,-5.83894 -4.04026,-5.83894 -4.05238,5.83894 -4.05237,5.83894 h -4.2594 c -4.02757,0 -4.23364,-0.0318 -3.78609,-0.58473 z"
         id="path60"
         inkscape:connector-curvature="0" />
      <path
         style="fill:#5b5a65;stroke-width:0.32389477"
         d="m 173.68031,187.62673 c -1.0361,-0.36995 -2.22546,-0.9787 -2.64301,-1.35278 -0.70303,-0.62983 -0.72117,-0.72057 -0.24525,-1.22705 0.46215,-0.49182 0.57026,-0.49548 1.07315,-0.0364 1.39548,1.27405 4.85758,2.13249 7.13475,1.76908 3.10004,-0.49473 4.43914,-2.37156 4.77495,-6.6924 l 0.20586,-2.64866 -1.26075,1.37294 c -3.6971,4.0261 -10.43412,2.89979 -12.65038,-2.11493 -0.95575,-2.16257 -0.95575,-5.04085 0,-7.20342 2.17942,-4.93135 8.85681,-6.10673 12.52365,-2.20446 l 1.29113,1.37402 v -1.87703 c 0,-1.65427 0.0745,-1.87703 0.62794,-1.87703 0.61206,0 0.62795,0.22276 0.62795,8.80461 0,9.05798 -0.1217,10.15598 -1.33035,12.00261 -1.54199,2.35591 -6.34549,3.26205 -10.12964,1.91086 z m 6.33723,-8.38582 c 2.63621,-0.88612 4.23527,-4.65037 3.41325,-8.03488 -1.55087,-6.38541 -10.72332,-6.37844 -12.28032,0.009 -1.41499,5.8052 3.1583,9.94447 8.86707,8.02555 z m -145.426919,2.06417 c -2.687714,-1.27775 -4.291806,-3.92072 -4.491293,-7.40003 -0.230998,-4.02893 1.876142,-7.3897 5.314502,-8.47634 1.954866,-0.61781 3.382959,-0.65734 5.009678,-0.13867 1.235723,0.394 3.429294,2.09588 3.429294,2.66061 0,0.718 -0.974184,0.64126 -1.953804,-0.15391 -2.649641,-2.15073 -7.120587,-1.60176 -8.958118,1.09995 -1.076114,1.5822 -1.411196,2.94433 -1.276811,5.19032 0.103371,1.72764 0.318239,2.45231 1.057188,3.56552 2.127237,3.20462 6.48609,3.87836 9.224864,1.42587 0.81304,-0.72805 1.906681,-0.82155 1.906681,-0.16301 0,0.47993 -1.763444,2.01237 -2.894159,2.51502 -1.563847,0.6952 -4.774985,0.632 -6.368022,-0.12533 z m 16.60904,-0.0127 c -5.899209,-2.79392 -6.07076,-12.19953 -0.282484,-15.48775 0.96164,-0.54629 1.807604,-0.71345 3.61068,-0.71345 2.608177,0 4.178032,0.65316 5.711484,2.37636 2.890702,3.24838 2.850808,8.99376 -0.08414,12.11714 -2.163337,2.30224 -6.110857,3.05498 -8.955545,1.7077 z m 6.897649,-1.91519 c 1.733924,-1.29987 2.709991,-3.38632 2.709991,-5.79291 0,-4.31241 -2.506047,-7.12987 -6.309033,-7.09301 -3.787927,0.0367 -6.249855,2.80992 -6.249855,7.04007 0,3.16076 1.5763,5.65172 4.238625,6.69811 1.562212,0.614 4.186072,0.21541 5.610272,-0.85226 z m 9.062538,-5.8647 0.08388,-8.4368 0.706437,-0.10677 c 0.66284,-0.10018 0.706438,0.0127 0.706438,1.82853 0,1.92756 0.0022,1.932 0.539793,1.10917 2.135727,-3.26867 7.27971,-4.0002 10.136998,-1.44158 1.713294,1.5342 1.967049,2.65596 2.123329,9.38637 l 0.141592,6.09789 H 80.80439 80.010461 l -0.103922,-5.93082 c -0.09186,-5.24245 -0.178091,-6.06519 -0.742971,-7.08846 -0.928099,-1.68124 -2.451991,-2.51453 -4.540886,-2.48303 -1.986961,0.0299 -3.349946,0.67621 -4.503734,2.13545 -1.203433,1.52202 -1.458658,2.99655 -1.460589,8.43843 l -0.0018,4.92843 h -0.790322 -0.790321 z m 21.113445,7.97111 c -0.694359,-0.23155 -1.641698,-0.68543 -2.1052,-1.00863 -0.69942,-0.4877 -0.783009,-0.68939 -0.491539,-1.18608 0.332192,-0.56607 0.43585,-0.55319 1.916238,0.23811 2.774256,1.48289 6.845081,1.3689 8.20455,-0.22974 0.290964,-0.34216 0.542148,-1.11335 0.558189,-1.71376 0.04362,-1.63268 -1.074702,-2.45423 -4.508738,-3.31221 -4.390663,-1.09698 -5.541745,-1.9373 -5.809705,-4.24123 -0.350876,-3.01687 1.938239,-4.95437 5.853463,-4.95437 2.585919,0 5.337528,0.88091 5.337528,1.70877 0,0.7401 -0.786573,0.89932 -1.777002,0.3597 -3.340611,-1.82007 -7.956137,-0.41089 -7.956137,2.42911 0,1.53467 1.185182,2.32116 5.071916,3.36572 2.98236,0.8015 3.702888,1.12417 4.425743,1.98193 1.831388,2.17318 0.609257,5.84692 -2.223636,6.68427 -1.552514,0.4589 -4.945382,0.39539 -6.49567,-0.12159 z m 17.275047,-0.16582 c -0.69074,-0.33927 -1.55092,-0.97499 -1.91151,-1.41272 -1.33194,-1.61686 -1.53927,-2.82549 -1.54076,-8.98208 -10e-4,-5.74452 0.0106,-5.84911 0.67932,-5.95048 0.67321,-0.10205 0.6819,-0.0374 0.78493,5.84729 0.0915,5.22696 0.18054,6.08843 0.73213,7.08501 0.9775,1.76609 2.10629,2.48018 4.15592,2.62911 2.50483,0.18202 4.31997,-0.8497 5.39079,-3.06411 0.70341,-1.4546 0.78325,-2.07431 0.91191,-7.07768 0.13064,-5.08032 0.18418,-5.4835 0.72817,-5.4835 0.55823,0 0.58717,0.41999 0.58717,8.52034 0,8.29759 -0.0164,8.52034 -0.62794,8.52034 -0.54737,0 -0.62795,-0.22275 -0.62795,-1.73595 v -1.73595 l -1.06412,1.23634 c -0.58526,0.67998 -1.56973,1.46116 -2.18772,1.73594 -1.55054,0.68946 -4.46844,0.62542 -6.01034,-0.1319 z m 17.11149,-11.39719 V 157.8919 h 0.78493 0.78493 v 12.02872 12.02871 h -0.78493 -0.78493 z m 10.2041,11.71284 c -0.34537,-0.15044 -0.91052,-0.60738 -1.25589,-1.01544 -0.57568,-0.68017 -0.63599,-1.29383 -0.72459,-7.3728 l -0.0966,-6.63087 -1.47322,-0.10106 c -1.25411,-0.086 -1.48814,-0.21286 -1.57355,-0.85284 -0.0927,-0.69482 0.0203,-0.7518 1.49137,-0.7518 h 1.5917 v -1.83772 c 0,-1.61496 0.0761,-1.83772 0.62794,-1.83772 0.55183,0 0.62794,0.22276 0.62794,1.83772 v 1.83772 h 2.51178 c 2.46992,0 2.51178,0.0139 2.51178,0.83533 0,0.82141 -0.0419,0.83533 -2.51178,0.83533 h -2.51178 l 0.002,5.26256 c 0.003,8.50293 0.46445,9.25195 5.16676,8.38349 0.94893,-0.17525 0.95641,0.87113 0.01,1.33027 -0.91823,0.44524 -3.44672,0.49003 -4.39308,0.0778 z m 9.57615,-8.20447 v -8.52034 h 0.78493 0.78493 v 8.52034 8.52034 h -0.78493 -0.78493 z m 7.92241,0.0835 0.0839,-8.4368 0.70644,-0.10677 c 0.66009,-0.0998 0.70643,0.0154 0.70643,1.75515 v 1.86192 l 1.11317,-1.31125 c 2.50112,-2.94619 7.29565,-3.15826 9.96174,-0.44063 1.41133,1.43861 1.79796,3.51645 1.79796,9.66268 v 5.45251 h -0.76 -0.75999 l -0.10343,-6.15788 c -0.0941,-5.60059 -0.16202,-6.2413 -0.75078,-7.07964 -1.24424,-1.77168 -2.17157,-2.25819 -4.29446,-2.25301 -2.10616,0.005 -3.40189,0.53385 -4.51662,1.84295 -1.35978,1.59688 -1.49767,2.27757 -1.63089,8.05089 l -0.12916,5.59669 h -0.75409 -0.75409 z m -7.84392,-12.83473 c -0.53699,-0.23059 -0.49539,-1.61076 0.0634,-2.10432 0.74963,-0.66208 1.74191,-0.10619 1.74191,0.97586 0,1.12768 -0.73593,1.58768 -1.80534,1.12846 z m -69.623338,-4.89731 c -3.474511,-0.94863 -6.094904,-3.15416 -7.253515,-6.10514 -0.702918,-1.79034 -0.645025,-5.39151 0.116116,-7.22266 1.994424,-4.79822 5.549632,-6.26341 15.222183,-6.27349 l 5.573007,-0.006 v -0.77468 c 0,-2.65087 -1.469217,-5.18739 -3.698024,-6.38444 -2.672569,-1.43537 -7.99507,-0.92872 -11.758103,1.11928 l -2.312107,1.25834 -1.397763,-2.80093 c -1.583051,-3.17222 -1.682326,-2.86163 1.426567,-4.46302 4.138553,-2.13176 10.76525,-2.97392 15.290692,-1.94324 3.658159,0.83316 6.487093,2.84745 7.912031,5.63363 1.64588,3.21818 1.750297,4.20769 1.754341,16.6248 l 0.0037,11.44399 H 90.32069 86.866995 v -2.00479 -2.00478 l -1.219844,1.29816 c -1.763143,1.87635 -4.180384,2.74986 -8.042336,2.90624 -1.926581,0.078 -3.746294,-0.0385 -4.709583,-0.30147 z m 9.027725,-5.90557 c 1.636847,-0.65174 3.556303,-2.40399 4.278973,-3.90622 0.193102,-0.40141 0.351093,-1.66266 0.351093,-2.80278 v -2.07296 l -5.259034,0.16723 c -5.745372,0.18271 -7.010746,0.50744 -8.189055,2.1016 -0.936074,1.26643 -0.935531,3.73713 0.0013,5.00431 1.579801,2.13734 5.537455,2.81461 8.816924,1.50882 z m 48.992113,5.84249 c -6.03955,-1.3968 -10.69159,-5.99909 -12.1701,-12.03994 -0.61645,-2.51869 -0.6162,-7.14441 6.3e-4,-9.66424 1.38735,-5.6684 5.67298,-10.1631 11.17679,-11.72204 2.21846,-0.62838 6.89455,-0.61507 9.20802,0.0262 6.99706,1.93952 11.4472,8.51591 11.46758,16.94673 l 0.005,2.25539 h -12.58005 -12.58005 l 0.21843,0.75179 c 0.80665,2.77631 2.57898,4.91351 5.16142,6.22399 1.52392,0.77332 2.11423,0.8763 5.02355,0.8763 2.96549,0 3.49219,-0.0961 5.24244,-0.95657 1.07015,-0.52611 2.18702,-1.24031 2.48194,-1.58712 0.29492,-0.34681 0.65598,-0.63056 0.80235,-0.63056 0.25794,0 1.47457,1.35121 3.23991,3.59827 l 0.85813,1.09229 -1.21034,1.18634 c -1.56839,1.53729 -5.10746,3.33201 -7.46895,3.7876 -2.47462,0.47743 -6.46931,0.41244 -8.87707,-0.14442 z m 12.31646,-21.0801 c -0.79679,-2.81751 -2.76318,-5.08896 -5.34405,-6.17311 -1.60699,-0.67506 -5.44817,-0.54367 -7.08033,0.24218 -2.66869,1.28492 -4.51146,3.61432 -5.1802,6.54816 l -0.20945,0.91886 h 9.12422 9.12421 z M 30.038024,132.33089 v -23.55623 h 3.60731 3.607309 l 0.08186,14.21108 0.08186,14.21109 7.640068,-7.52847 7.640068,-7.52846 h 4.445059 4.445058 l -6.552493,6.97913 c -4.722183,5.02965 -6.478726,7.10631 -6.288408,7.43441 0.145246,0.25041 3.342385,4.617 7.104748,9.70354 3.762367,5.08655 6.840664,9.33419 6.840664,9.4392 0,0.10502 -1.96081,0.19094 -4.357354,0.19094 H 53.97642 l -5.435842,-7.18382 c -2.989716,-3.95109 -5.519349,-7.18381 -5.621412,-7.18381 -0.102063,0 -1.417267,1.21514 -2.922678,2.70031 l -2.737111,2.7003 v 4.48351 4.48351 h -3.61068 -3.610681 z m 73.469496,0 v -23.55623 h 3.61068 3.61068 v 23.55623 23.55623 h -3.61068 -3.61068 z m 49.29364,23.41439 c 0,-0.10435 7.92646,-11.2031 11.95573,-16.74059 0.14576,-0.20032 -2.15798,-3.72563 -5.53912,-8.47627 -3.18377,-4.47332 -5.78866,-8.19073 -5.78866,-8.26092 0,-0.0702 1.8047,-0.1276 4.01044,-0.1276 H 161.45 l 3.87424,5.51605 3.87425,5.51605 3.89377,-5.51605 3.89378,-5.51605 h 3.94152 3.94153 l -0.62704,0.91886 c -0.34488,0.50537 -2.96686,4.15157 -5.82664,8.10267 -2.85978,3.9511 -5.14261,7.35022 -5.07296,7.55359 0.0696,0.20338 2.44024,3.58646 5.26797,7.51795 2.82774,3.93149 5.54117,7.71201 6.02986,8.40116 l 0.88852,1.25299 -4.1974,-0.0206 -4.19739,-0.0205 -3.91266,-5.68371 c -2.15197,-3.12604 -3.99781,-5.7397 -4.10187,-5.80814 -0.10406,-0.0684 -2.01683,2.49283 -4.25061,5.69172 l -4.06142,5.81619 -4.00314,0.0125 c -2.20173,0.007 -4.00315,-0.0513 -4.00315,-0.12932 z"
         id="path58"
         inkscape:connector-curvature="0" />
      <path
         style="fill:#2e2d4c;stroke-width:0.32389477"
         d="m 174.69585,187.95385 c -1.08718,-0.29059 -2.8764,-1.17059 -3.97808,-1.95656 -0.36042,-0.25713 -0.37341,-0.42079 -0.0648,-0.81652 0.33555,-0.43027 0.62337,-0.36465 2.20289,0.50228 3.42945,1.88226 7.61984,1.61828 9.44594,-0.59507 1.11908,-1.3564 1.57854,-2.99412 1.58086,-5.63489 l 0.002,-1.99504 -1.15228,1.2625 c -1.53339,1.68007 -2.97958,2.30564 -5.44113,2.35365 -4.71192,0.0919 -7.84931,-3.09746 -7.84931,-7.97934 0,-4.88364 3.08179,-8.01628 7.84055,-7.96991 2.36083,0.023 3.66249,0.59752 5.42478,2.39431 l 1.17739,1.20046 v -1.73847 c 0,-1.53226 0.0767,-1.73847 0.6464,-1.73847 0.63911,0 0.64531,0.1027 0.54945,9.10507 l -0.0971,9.10507 -0.85898,1.55503 c -1.14086,2.06531 -2.96806,3.02579 -6.01551,3.16212 -1.22688,0.0549 -2.76272,-0.0424 -3.41297,-0.21622 z m 6.14551,-9.12348 c 4.01505,-2.50405 3.87284,-9.16782 -0.24826,-11.63359 -1.81242,-1.08441 -4.83863,-1.05638 -6.7081,0.0621 -1.95758,1.17124 -3.02965,3.2408 -3.02313,5.83594 0.008,3.21441 1.60868,5.55433 4.47121,6.53645 1.41723,0.48624 4.0607,0.10186 5.50828,-0.80094 z m -145.153869,2.80677 c -3.336706,-1.08015 -5.649467,-4.44037 -5.649467,-8.20815 0,-5.66568 5.012488,-9.63966 10.152876,-8.04936 1.66787,0.51599 3.661902,1.91893 3.661902,2.57639 0,0.72355 -0.998583,0.63673 -1.893472,-0.16461 -2.083199,-1.86544 -5.744535,-1.89336 -8.001924,-0.061 -2.932769,2.38056 -3.163851,8.43211 -0.424328,11.11228 2.319622,2.26937 6.348618,2.3812 8.463262,0.2349 0.756225,-0.76754 1.856462,-0.84103 1.856462,-0.124 0,0.52625 -2.242765,2.23606 -3.429294,2.61437 -1.333459,0.42517 -3.536932,0.45736 -4.736017,0.0692 z m 16.640529,0.0201 c -2.221708,-0.77579 -3.823029,-2.20875 -4.900955,-4.38569 -0.917867,-1.8537 -0.813744,-5.73973 0.210546,-7.85791 2.817857,-5.8272 10.965649,-5.82601 13.780492,0.002 0.654682,1.35549 0.800369,2.12245 0.792799,4.17355 -0.01316,3.56309 -1.303042,5.92272 -4.06313,7.43279 -1.353453,0.74048 -4.526469,1.08683 -5.819752,0.63524 z m 4.638921,-1.56152 c 3.488168,-1.55102 4.965263,-6.1546 3.211672,-10.00961 -2.257454,-4.96269 -9.040466,-4.97059 -11.295527,-0.0132 -1.304147,2.86698 -0.727901,6.75539 1.299339,8.76774 1.719042,1.70642 4.579414,2.23554 6.784516,1.25504 z m 10.433777,-6.49961 c 0,-8.13052 0.01673,-8.35328 0.627944,-8.35328 0.544799,0 0.627945,0.22276 0.627945,1.68229 v 1.68228 l 0.987446,-1.19685 c 2.987458,-3.62099 9.249593,-3.06545 10.97319,0.97347 0.500617,1.1731 0.585452,2.24438 0.591358,7.46747 0.0066,5.79363 -0.0232,6.09789 -0.596114,6.09789 -0.569141,0 -0.608817,-0.34584 -0.706438,-6.15788 -0.112559,-6.70157 -0.201699,-7.05079 -2.206273,-8.64351 -1.853384,-1.47259 -5.48755,-1.00115 -7.260771,0.9419 -1.498574,1.64211 -1.782398,3.04383 -1.782398,8.80276 0,4.83398 -0.02766,5.05673 -0.627945,5.05673 -0.6112,0 -0.627944,-0.22275 -0.627944,-8.35327 z m 21.821069,8.11336 c -1.150887,-0.29762 -3.61068,-1.50936 -3.61068,-1.77869 0,-1.15609 0.37822,-1.23745 1.805657,-0.38841 2.04156,1.2143 6.027582,1.43757 7.542843,0.42248 1.282947,-0.85946 1.797124,-2.15257 1.33155,-3.34873 -0.477972,-1.22801 -1.180419,-1.59818 -4.723878,-2.48938 -3.641083,-0.91574 -4.578378,-1.47505 -5.222887,-3.11662 -0.657731,-1.67524 -0.320277,-3.15831 0.999166,-4.39118 1.385795,-1.29486 3.280212,-1.83772 5.542517,-1.58824 1.763858,0.19452 4.346459,1.08854 4.337197,1.50141 -0.01975,0.87957 -0.55835,0.9697 -2.197244,0.36769 -4.560362,-1.67514 -8.568427,0.42351 -7.336055,3.84123 0.281118,0.77962 1.526885,1.37727 4.53671,2.17646 4.763778,1.26493 5.62934,1.97216 5.62934,4.5996 0,2.73922 -2.478873,4.47287 -6.279444,4.39167 -0.949766,-0.0203 -2.009423,-0.10997 -2.354792,-0.19929 z m 16.698233,-0.24418 c -1.56456,-0.59382 -2.37112,-1.38633 -3.07789,-3.02428 -0.48979,-1.13509 -0.57775,-2.23041 -0.5836,-7.26735 -0.007,-5.62719 0.024,-5.93083 0.59562,-5.93083 0.56751,0 0.60856,0.3446 0.70644,5.93083 0.11898,6.79031 0.36494,7.61141 2.62947,8.77803 2.80518,1.44515 6.25083,0.39212 7.67649,-2.34601 0.72716,-1.3966 0.7909,-1.88994 0.89569,-6.93322 0.10527,-5.06664 0.15264,-5.42963 0.70849,-5.42963 0.56904,0 0.59568,0.37359 0.59568,8.35328 0,8.13052 -0.0167,8.35327 -0.62794,8.35327 -0.54779,0 -0.62795,-0.22275 -0.62795,-1.74512 v -1.74512 l -0.93569,1.09023 c -1.86776,2.17623 -5.17209,2.97208 -7.95481,1.91592 z m 16.73981,-11.54462 V 157.8919 h 0.78493 0.78493 v 12.02872 12.02871 h -0.78493 -0.78493 z m 9.97651,11.52949 c -1.50772,-0.90885 -1.64538,-1.55588 -1.81323,-8.52231 l -0.15699,-6.51556 -1.49137,-0.10184 c -1.01822,-0.0695 -1.49137,-0.24923 -1.49137,-0.56642 0,-0.31719 0.47315,-0.49689 1.49137,-0.56642 l 1.49137,-0.10184 0.0942,-1.92125 c 0.0799,-1.62971 0.1847,-1.92126 0.69077,-1.92126 0.50607,0 0.6109,0.29155 0.69077,1.92126 l 0.0942,1.92125 2.43329,0.0976 c 1.88047,0.0754 2.43328,0.20826 2.43328,0.58472 0,0.38657 -0.52364,0.48715 -2.53624,0.48715 h -2.53624 l 0.10296,6.3223 c 0.1003,6.15953 0.12255,6.34449 0.86412,7.18382 0.83297,0.94278 2.6502,1.17736 3.84578,0.49642 0.46434,-0.26446 0.73618,-0.2638 0.98631,0.002 1.11129,1.18265 -3.46669,2.24055 -5.1929,1.2 z m 9.80374,-7.85405 v -8.35328 h 0.78493 0.78493 v 8.35328 8.35327 h -0.78493 -0.78493 z m 8.16328,0 c 0,-8.13052 0.0167,-8.35328 0.62794,-8.35328 0.54776,0 0.62839,0.22399 0.63143,1.75419 l 0.003,1.75419 0.81102,-1.09519 c 2.11275,-2.85304 7.06295,-3.55865 9.66786,-1.37807 0.45907,0.38429 1.13919,1.32352 1.51137,2.08718 0.60158,1.23436 0.69199,2.06531 0.81453,7.48636 l 0.13783,6.09789 h -0.82328 -0.82329 v -5.7418 c 0,-6.92694 -0.34016,-8.09445 -2.71474,-9.31778 -2.78553,-1.43503 -6.17269,-0.32594 -7.70811,2.52393 -0.6612,1.22725 -0.73216,1.82184 -0.82812,6.93896 -0.0985,5.25298 -0.1419,5.59669 -0.70644,5.59669 -0.57662,0 -0.60148,-0.34526 -0.60148,-8.35327 z m -8.10049,-13.09793 c -0.93739,-0.99758 0.10227,-2.55924 1.26348,-1.89787 0.92554,0.52713 0.50833,2.29882 -0.54134,2.29882 -0.18995,0 -0.51492,-0.18043 -0.72214,-0.40095 z m -69.531848,-4.79882 c -2.275608,-0.58685 -3.388276,-1.1986 -5.010385,-2.75474 -4.007918,-3.84493 -3.599497,-11.37422 0.776877,-14.32185 2.700466,-1.81886 4.537844,-2.19883 11.457572,-2.36944 l 6.357937,-0.15676 v -1.14175 c 0,-2.73841 -1.984298,-5.50631 -4.522528,-6.30848 -1.859089,-0.58754 -4.865762,-0.63505 -7.157483,-0.1131 -1.702731,0.3878 -4.837574,1.8121 -5.141951,2.33621 -0.42899,0.73868 -1.054008,0.0913 -2.284359,-2.36607 l -1.330849,-2.65811 1.191882,-0.83064 c 2.702996,-1.88376 7.670266,-3.20882 12.028998,-3.20882 4.824613,0 8.236929,1.17042 10.830889,3.71496 3.22279,3.1614 3.594206,5.16463 3.601312,19.42361 l 0.0054,10.94279 H 90.32069 86.866995 v -2.0726 -2.0726 l -1.177395,1.20185 c -1.619946,1.65358 -3.434376,2.54866 -5.951623,2.936 -2.81262,0.43279 -4.570745,0.38591 -6.766955,-0.18046 z m 9.978021,-6.17892 c 0.862569,-0.47276 2.013899,-1.49056 2.580673,-2.28136 0.931401,-1.29956 1.023307,-1.6393 1.023307,-3.78282 v -2.35503 l -5.416021,0.15028 c -4.704054,0.13051 -5.582457,0.24187 -6.68212,0.84713 -1.525798,0.8398 -2.197356,2.05697 -2.159029,3.91316 0.03676,1.78023 0.78472,2.96826 2.426339,3.85391 1.914832,1.03304 6.026954,0.86046 8.226851,-0.34527 z m 48.188037,6.20281 c -4.73417,-1.13984 -9.34473,-4.68643 -11.0805,-8.52349 -4.06302,-8.98164 -1.06337,-19.4488 6.74297,-23.52932 2.87659,-1.50365 5.28069,-1.98362 8.89013,-1.77487 6.40323,0.37033 11.56101,4.21397 13.6578,10.17797 0.76923,2.18796 1.42875,6.99683 1.1321,8.25466 l -0.20216,0.85721 H 137.8815 c -14.09909,0 -13.08073,-0.25716 -11.58988,2.92669 1.42181,3.03638 3.98592,4.83958 7.63745,5.37103 3.50428,0.51001 7.30786,-0.47832 9.54276,-2.4796 l 0.98035,-0.87788 1.95171,2.29125 1.9517,2.29124 -0.99257,1.10135 c -1.29051,1.43192 -3.05038,2.51297 -5.54945,3.4089 -2.6514,0.95054 -7.81188,1.19457 -10.67649,0.50486 z m 12.36296,-20.46867 c -1.23729,-5.46892 -6.53275,-8.60559 -11.78506,-6.98067 -2.21358,0.68482 -4.49714,2.78526 -5.48667,5.04669 -1.34315,3.06957 -1.97888,2.85284 8.36844,2.85284 h 9.11118 z M 30.038024,132.33089 v -23.55623 h 3.610681 3.61068 v 14.20056 c 0,7.81031 0.07529,14.20057 0.167305,14.20057 0.09202,0 3.588884,-3.38178 7.770814,-7.51507 l 7.603506,-7.51507 4.392807,-0.003 4.392807,-0.003 -6.512119,6.93613 c -3.581667,3.81514 -6.51212,7.06018 -6.51212,7.21147 0,0.15128 3.07997,4.4352 6.844381,9.51981 3.764407,5.08461 6.951715,9.4327 7.082902,9.66241 0.186368,0.32634 -0.709536,0.4163 -4.097121,0.41139 l -4.335648,-0.006 -5.494514,-7.32342 c -3.021983,-4.02787 -5.591757,-7.29535 -5.710608,-7.26107 -0.118851,0.0343 -1.42576,1.32075 -2.904242,2.85878 l -2.68815,2.79643 v 4.47092 4.47092 h -3.61068 -3.610681 z m 73.469496,0 v -23.55623 h 3.61068 3.61068 v 23.55623 23.55623 h -3.61068 -3.61068 z m 49.52159,23.13856 c 2.22251,-3.04503 11.64206,-16.21953 11.80097,-16.50521 0.12094,-0.21742 -1.98249,-3.47204 -4.85877,-7.51795 -2.78962,-3.924 -5.41959,-7.62321 -5.84439,-8.22047 l -0.77235,-1.08592 4.04042,0.0122 4.04041,0.0122 3.61068,5.18886 c 1.98587,2.85387 3.75954,5.32319 3.94147,5.48738 0.21594,0.19487 1.67192,-1.61094 4.19349,-5.20108 l 3.86269,-5.49961 h 3.88155 3.88154 l -5.79873,8.05059 c -3.18931,4.42782 -5.79873,8.1966 -5.79873,8.37505 0,0.28536 4.0013,5.95131 10.28584,14.565 l 2.01119,2.75658 h -4.08511 -4.08511 l -4.02573,-5.83636 c -2.21416,-3.21 -4.13293,-5.84128 -4.26394,-5.84729 -0.131,-0.006 -2.07249,2.62035 -4.31439,5.83636 l -4.07621,5.84729 h -3.96581 c -3.12592,0 -3.90126,-0.0885 -3.66098,-0.41767 z"
         id="path56"
         inkscape:connector-curvature="0" />
      <path
         style="fill:#040404;stroke-width:0.32389477"
         d="m 174.77922,187.85476 c -2.87877,-0.7134 -4.50405,-1.90058 -3.93751,-2.87612 0.12287,-0.21157 0.88898,0.0717 1.99015,0.7358 1.65119,0.99585 2.01004,1.07979 4.61612,1.07979 3.32054,0 4.73476,-0.68701 5.68532,-2.76185 0.55318,-1.20745 1.05489,-6.42675 0.61778,-6.42675 -0.10991,0 -0.62595,0.5165 -1.14678,1.14777 -2.53818,3.07643 -8.19534,3.06992 -11.08823,-0.0128 -1.36999,-1.45985 -2.06059,-3.35203 -2.06059,-5.64578 0,-4.68807 3.1417,-7.9426 7.65554,-7.93049 2.47598,0.007 4.31951,0.82327 5.68166,2.51681 l 1.09173,1.35734 v -1.89786 c 0,-1.69696 0.0688,-1.89787 0.65041,-1.89787 0.64445,0 0.64948,0.0834 0.54945,9.10507 -0.10771,9.71433 -0.12267,9.81243 -1.78768,11.72195 -1.63445,1.87449 -5.16795,2.615 -8.51737,1.78496 z m 4.8226,-8.31986 c 2.38173,-0.7594 4.28259,-3.61786 4.28259,-6.44004 0,-6.03323 -7.13268,-9.11318 -11.25209,-4.85874 -2.51917,2.60174 -2.53918,7.05561 -0.0436,9.71138 1.74519,1.85725 4.33108,2.44256 7.01313,1.5874 z m -144.226268,1.90101 c -3.269492,-1.08038 -5.175411,-4.05106 -5.137043,-8.00692 0.02666,-2.74893 0.599477,-4.33742 2.164772,-6.00322 1.499248,-1.5955 3.047279,-2.23111 5.484049,-2.25171 2.310632,-0.0195 3.976312,0.59452 5.229012,1.92765 0.767565,0.81685 0.792463,0.92127 0.290877,1.21999 -0.411313,0.24497 -0.719807,0.15546 -1.233158,-0.35777 -1.651214,-1.65083 -4.115391,-2.10711 -6.514616,-1.20626 -2.667972,1.00175 -4.130703,3.3598 -4.129024,6.65635 0.0012,2.33908 0.563129,3.97031 1.82666,5.30253 2.328366,2.45495 6.729571,2.56291 8.931979,0.21909 0.606375,-0.64531 0.744532,-0.67437 1.150774,-0.24204 0.406242,0.43233 0.322267,0.61359 -0.69948,1.50988 -1.915452,1.68025 -4.633258,2.13505 -7.364802,1.23243 z m 16.640527,0.02 c -3.290906,-1.134 -5.175339,-4.07853 -5.137043,-8.0269 0.02666,-2.74893 0.599476,-4.33742 2.164772,-6.00322 1.506056,-1.60275 3.047907,-2.23304 5.484049,-2.2418 2.430512,-0.009 3.954785,0.61435 5.484049,2.2418 3.594185,3.82496 2.83105,10.6336 -1.494197,13.3311 -1.739293,1.08474 -4.51595,1.38328 -6.50163,0.69903 z m 5.075895,-1.31929 c 2.439542,-1.08475 3.810219,-3.49312 3.81751,-6.70761 0.0114,-5.02345 -3.823205,-8.16825 -8.334204,-6.83498 -3.431202,1.01412 -5.337261,5.57164 -4.056889,9.7003 0.412023,1.32859 2.103922,3.23638 3.421305,3.85788 1.194165,0.56336 3.868442,0.55527 5.152278,-0.0156 z m 10.308744,-6.54054 c 0,-8.13052 0.01673,-8.35328 0.627944,-8.35328 0.547763,0 0.628391,0.22399 0.631427,1.75419 l 0.0035,1.75419 0.811015,-1.09519 c 1.242931,-1.67844 2.991028,-2.47522 5.466687,-2.49172 2.530179,-0.0169 4.353658,0.90352 5.426312,2.73885 0.638253,1.09207 0.698739,1.67253 0.793424,7.61421 0.100766,6.32324 0.09148,6.43202 -0.549451,6.43202 -0.634664,0 -0.651954,-0.15228 -0.651954,-5.7418 0,-5.11474 -0.07064,-5.89708 -0.646818,-7.16373 -1.670721,-3.67284 -7.352736,-3.72845 -9.615006,-0.0941 -0.872024,1.40091 -0.88555,1.50011 -0.982922,7.21005 -0.09322,5.46638 -0.132656,5.78959 -0.706437,5.78959 -0.584755,0 -0.607706,-0.31548 -0.607706,-8.35327 z m 20.771887,7.71508 c -1.926188,-0.70791 -2.862014,-1.51457 -2.367552,-2.04078 0.22271,-0.23701 0.887484,-0.0703 2.126183,0.53321 1.572266,0.76602 2.123689,0.86249 4.322625,0.75622 2.384886,-0.11525 2.56957,-0.1803 3.433368,-1.20913 0.959018,-1.14224 1.127838,-2.02983 0.589627,-3.10006 -0.468849,-0.9323 -1.640979,-1.46011 -5.104727,-2.29866 -3.451095,-0.83549 -4.522829,-1.57183 -4.894893,-3.36306 -0.763674,-3.67655 2.738271,-6.28237 7.245496,-5.39143 2.935195,0.58019 3.910662,1.15595 3.412323,2.01405 -0.201275,0.34658 -0.461163,0.31789 -1.299478,-0.14346 -0.57634,-0.31717 -1.932863,-0.65227 -3.014504,-0.74467 -3.246664,-0.27734 -5.105552,0.9291 -5.11915,3.3224 -0.0098,1.72603 0.955659,2.41281 4.637586,3.29895 3.673067,0.88401 4.615649,1.35981 5.24024,2.64519 0.671427,1.38176 0.592189,2.73489 -0.237429,4.05463 -1.340178,2.1319 -5.566812,2.91723 -8.969715,1.6666 z m 17.876185,0.20665 c -1.43827,-0.48862 -3.06272,-2.28056 -3.46504,-3.82232 -0.18074,-0.69261 -0.3294,-3.77781 -0.33036,-6.85599 -0.002,-5.37456 0.0232,-5.5967 0.62619,-5.5967 0.60301,0 0.62794,0.22276 0.62794,5.60943 0,5.16002 0.0566,5.72689 0.70644,7.07556 0.88925,1.84554 2.31427,2.68504 4.55778,2.68504 2.07436,0 3.47046,-0.60438 4.55001,-1.96973 1.23124,-1.5572 1.48508,-3.00336 1.48702,-8.47186 0.002,-4.70506 0.0302,-4.92844 0.6297,-4.92844 0.6112,0 0.62794,0.22276 0.62794,8.35328 0,8.13052 -0.0167,8.35327 -0.62794,8.35327 -0.55208,0 -0.62795,-0.22275 -0.62795,-1.84359 v -1.84358 l -1.33438,1.47455 c -1.8831,2.08091 -4.61587,2.73623 -7.42735,1.78108 z m 16.61104,-11.59717 c 0,-11.80596 0.0116,-12.02872 0.62794,-12.02872 0.61632,0 0.62795,0.22276 0.62795,12.02872 0,11.80596 -0.0116,12.02871 -0.62795,12.02871 -0.61631,0 -0.62794,-0.22275 -0.62794,-12.02871 z m 10.19876,11.51588 c -1.76325,-0.92628 -1.8691,-1.38549 -1.98056,-8.59224 l -0.10206,-6.59908 h -1.38931 c -1.02562,0 -1.3893,-0.1312 -1.3893,-0.5012 0,-0.37126 0.3663,-0.5012 1.41287,-0.5012 h 1.41288 v -1.83772 c 0,-1.61496 0.0761,-1.83772 0.62794,-1.83772 0.55183,0 0.62794,0.22276 0.62794,1.83772 v 1.83772 h 2.51178 c 2.02338,0 2.51178,0.0975 2.51178,0.5012 0,0.40374 -0.4884,0.5012 -2.51178,0.5012 h -2.51178 v 6.03095 c 0,6.51245 0.2424,7.72023 1.64491,8.19599 1.02475,0.34761 2.75088,0.22236 3.27143,-0.23739 0.31819,-0.28104 0.54509,-0.29199 0.78391,-0.0378 0.49947,0.53153 0.0714,1.0172 -1.23749,1.40407 -1.58572,0.46867 -2.5608,0.42513 -3.68316,-0.16447 z m 9.89546,-7.84044 c 0,-8.13052 0.0167,-8.35328 0.62794,-8.35328 0.6112,0 0.62795,0.22276 0.62795,8.35328 0,8.13052 -0.0167,8.35327 -0.62795,8.35327 -0.6112,0 -0.62794,-0.22275 -0.62794,-8.35327 z m 7.84931,0 c 0,-8.13052 0.0167,-8.35328 0.62794,-8.35328 0.54539,0 0.62794,0.22276 0.62794,1.69445 v 1.69444 l 1.05548,-1.19099 c 2.17143,-2.4502 6.09281,-3.09022 8.75624,-1.42913 2.43716,1.51997 2.74717,2.63287 2.74717,9.86185 0,5.85318 -0.023,6.07593 -0.62794,6.07593 -0.60408,0 -0.62795,-0.22275 -0.62795,-5.8606 0,-5.26114 -0.0663,-5.99883 -0.64781,-7.21196 -1.72501,-3.59838 -7.60146,-3.4127 -9.77593,0.3089 -0.66771,1.14277 -0.73016,1.67153 -0.8267,6.9999 -0.0982,5.4196 -0.14037,5.76376 -0.70643,5.76376 -0.57731,0 -0.60201,-0.34271 -0.60201,-8.35327 z m -7.99707,-13.14967 c -0.86833,-0.67571 -0.49019,-1.71916 0.62302,-1.71916 0.72462,0 0.95978,0.16565 1.03516,0.72919 0.13027,0.97381 -0.89349,1.58502 -1.65818,0.98997 z"
         id="path54"
         inkscape:connector-curvature="0" />
    </g>
  </g>
</svg>
